<svg width="18" height="18" viewBox="0 0 18 18" fill="none" xmlns="http://www.w3.org/2000/svg">
<path d="M7.033 12.3H5.433V7.101H7.033V12.3ZM6.233 6.434C5.656 6.434 5.367 6.167 5.367 5.634C5.36521 5.52704 5.38663 5.42096 5.42979 5.32307C5.47295 5.22519 5.53682 5.13782 5.617 5.067C5.78375 4.91143 6.00503 4.82773 6.233 4.834C6.81 4.834 7.099 5.102 7.099 5.635C7.099 6.168 6.811 6.434 6.233 6.434ZM12.967 12.3H11.334V9.4C11.334 8.645 11.066 8.267 10.533 8.267C10.111 8.267 9.834 8.478 9.699 8.9C9.656 8.967 9.633 9.101 9.633 9.3V12.3H8V8.767C8 7.967 7.988 7.412 7.967 7.101H9.367L9.467 7.8C9.834 7.244 10.367 6.967 11.1 6.967C11.657 6.967 12.106 7.161 12.45 7.55C12.796 7.939 12.968 8.5 12.968 9.234L12.967 12.3ZM9 18C4.037 18 0 13.963 0 9C0 4.037 4.037 0 9 0C13.963 0 18 4.037 18 9C18 13.963 13.963 18 9 18ZM9 2C5.141 2 2 5.141 2 9C2 12.859 5.141 16 9 16C12.859 16 16 12.859 16 9C16 5.141 12.859 2 9 2Z" fill="black"/>
</svg>
